<?xml version="1.0" encoding="utf-8"?>
<!-- Generator: Adobe Illustrator 24.1.2, SVG Export Plug-In . SVG Version: 6.00 Build 0)  -->
<!DOCTYPE svg PUBLIC "-//W3C//DTD SVG 1.0//EN" "http://www.w3.org/TR/2001/REC-SVG-20010904/DTD/svg10.dtd" [
	<!ENTITY ns_extend "http://ns.adobe.com/Extensibility/1.0/">
	<!ENTITY ns_ai "http://ns.adobe.com/AdobeIllustrator/10.0/">
	<!ENTITY ns_graphs "http://ns.adobe.com/Graphs/1.0/">
	<!ENTITY ns_vars "http://ns.adobe.com/Variables/1.0/">
	<!ENTITY ns_imrep "http://ns.adobe.com/ImageReplacement/1.0/">
	<!ENTITY ns_sfw "http://ns.adobe.com/SaveForWeb/1.0/">
	<!ENTITY ns_custom "http://ns.adobe.com/GenericCustomNamespace/1.0/">
	<!ENTITY ns_adobe_xpath "http://ns.adobe.com/XPath/1.0/">
]>
<svg version="1.0" xmlns:x="&ns_extend;" xmlns:i="&ns_ai;" xmlns:graph="&ns_graphs;"
	 xmlns="http://www.w3.org/2000/svg" xmlns:xlink="http://www.w3.org/1999/xlink" x="0px" y="0px" width="1080px" height="720px"
	 viewBox="0 0 1080 720" enable-background="new 0 0 1080 720" xml:space="preserve">
<metadata>
	<sfw  xmlns="&ns_sfw;">
		<slices></slices>
		<sliceSourceBounds  bottomLeftOrigin="true" height="8684.4" width="6233.3" x="1337.3" y="-7019.9"></sliceSourceBounds>
		<optimizationSettings>
			<targetSettings  fileFormat="JPEGFormat" targetSettingsID="0">
				
					<JPEGFormat  blurAmount="0" embedICCProfile="false" matteColor="#FFFFFF" noMatteColor="false" optimized="true" progressive="false" quality="100">
					</JPEGFormat>
			</targetSettings>
		</optimizationSettings>
	</sfw>
</metadata>
<g id="Capa_1">
	
		<path fill="#FFFFFF" d="M615,331.1L615,331.1c-7-9.5-22.1-28-43.7-43.9c-15.3-11.3-30.8-19.1-41.4-23.6v-10.7
			c8.8-1.1,21.7-3.6,35-9.1c19.2-7.9,33.6-19.8,38.8-24.6c1.7-1.5,2.3-3.8,1.4-5.7c-0.8-1.9-2.9-3.1-5.2-2.9c-3.2,0.3-8.1,0.9-14,2
			c12.3-10.6,20.8-21.4,25-27c1.4-2,1.5-4.4,0.2-6.2c-1.3-1.8-3.7-2.5-6-1.8c-9.9,3-29.5,10.1-49,23.4c-8.4,5.7-16.6,12.5-24.4,20
			l-1.3-2.4l0.1-25.1l2.8-5.4l0.4-1.4l0-10.6l-3.1-3.1h-32.1l-3.1,3.1v10.1l0.2,1.3l1.7,3.8c-1.5-1.4-3.1-2.7-4.6-4
			c-10-8-20.3-12.7-25.6-14.8c-1.9-0.7-3.9-0.3-5.1,1.2c-1.2,1.5-1.3,3.5-0.3,5.2c3,4.9,9.6,14.3,19.7,22.4
			c4.9,3.9,10.5,7.4,16.5,10.4v8l-2.4,6.5l-0.2,1l-0.2,12.3l0.3,1.3l3.9,7.6v18l-3.8,8.7l-0.3,1.2l0,15.8l0.2,1.2l3.2,7.5v16.9l-3,6
			l-0.3,1.3l0,12.4l3.1,3.1h32.1l3.1-3.1v-11.6l-0.2-1.1l-3-7.4v-18.2l2.1-5.4c6.6,6.6,13.5,12.6,20.5,17.8
			c22.6,16.7,46.6,25.1,55.9,28c0.6,0.2,1.3,0.3,1.9,0.3c1.8,0,3.4-0.8,4.4-2.2C616.6,335.8,616.5,333.2,615,331.1z M523.8,297.3
			l-0.2,1.1l0,19.7l0.2,1.1l3,7.4v7h-24.3v-7.4l3-6l0.3-1.3l0-18.7l-0.2-1.2l-3.2-7.5v-2.6h24.3v0.8L523.8,297.3z M504.9,190.7
			l-2.4-5.2v-5.4h24.3v5.6l-2.8,5.4l-0.4,1.4l-0.1,27.1l0,0.1l0.3,1.3l2.8,5.2c-1.3,1.3-2.6,2.7-3.9,4.2h-20.3l0-2.3l2.4-6.5l0.2-1
			l0-5.7c0.9,0.4,1.8,0.7,2.7,1h0c1.9,0.7,3.9,0.1,5-1.4c1.2-1.5,1.2-3.6,0-5.3c-1.6-2.3-4.2-5.9-7.7-10V192L504.9,190.7z
			 M506.3,268.5l0.3-1.2l0-19.7l-0.3-1.4l-3.9-7.6l0-1.2h14.4c-0.1,0.2-0.3,0.3-0.4,0.5c-1.5,1.9-1.7,4.4-0.5,6.3
			c1.2,1.8,3.6,2.6,5.9,2c0.4-0.1,0.8-0.2,1.2-0.3V268l0.2,1.3l3.7,8v4.6h-24.3v-4.6L506.3,268.5z M530.1,245.7l1.9-2.6
			c10.1-3.4,25-9.5,39.6-19.4c0.4-0.2,0.7-0.5,1.1-0.7c8.1-2.4,15.5-3.7,21.1-4.5c-6.6,5.3-17.8,13.2-31.6,18.9
			C550,242.3,538.2,244.6,530.1,245.7z M569,216.9c-0.5,0.3-0.9,0.7-1.4,1c-14.5,9.8-29.3,15.8-39.3,19c-0.4,0.1-0.8,0.3-1.2,0.4
			l-0.1,0c-0.5,0.2-1,0.3-1.5,0.5c0.5-0.5,0.9-1.1,1.4-1.6c2-2.3,4-4.4,5.9-6.3c8.6-8.9,17.8-16.6,27.3-23.1
			c15.8-10.7,31.9-17.3,41.6-20.7C594.6,194.9,583.7,206.7,569,216.9z M486,195.9c-5.3-4.2-9.6-9-12.7-12.9
			c4.4,2.3,9.9,5.6,15.1,9.8c5.3,4.2,9.6,8.9,12.8,12.7C496.8,203.3,491.3,200.2,486,195.9z M533.5,275.3l-1.4-3.1
			c9.3,4.3,22.2,11.2,34.9,20.6c18.4,13.6,32,29.2,39.3,38.6c-11.4-3.9-30.7-11.8-49.1-25.4c-7.9-5.8-15.5-12.6-22.8-20.3
			c-0.2-0.2-0.5-0.4-0.8-0.6v-8.5L533.5,275.3z"/>
	
</svg>
