<?xml version="1.0" encoding="utf-8"?>
<!-- Generator: Adobe Illustrator 24.1.2, SVG Export Plug-In . SVG Version: 6.00 Build 0)  -->
<!DOCTYPE svg PUBLIC "-//W3C//DTD SVG 1.0//EN" "http://www.w3.org/TR/2001/REC-SVG-20010904/DTD/svg10.dtd" [
	<!ENTITY ns_extend "http://ns.adobe.com/Extensibility/1.0/">
	<!ENTITY ns_ai "http://ns.adobe.com/AdobeIllustrator/10.0/">
	<!ENTITY ns_graphs "http://ns.adobe.com/Graphs/1.0/">
	<!ENTITY ns_vars "http://ns.adobe.com/Variables/1.0/">
	<!ENTITY ns_imrep "http://ns.adobe.com/ImageReplacement/1.0/">
	<!ENTITY ns_sfw "http://ns.adobe.com/SaveForWeb/1.0/">
	<!ENTITY ns_custom "http://ns.adobe.com/GenericCustomNamespace/1.0/">
	<!ENTITY ns_adobe_xpath "http://ns.adobe.com/XPath/1.0/">
]>
<svg version="1.0" xmlns:x="&ns_extend;" xmlns:i="&ns_ai;" xmlns:graph="&ns_graphs;"
	 xmlns="http://www.w3.org/2000/svg" xmlns:xlink="http://www.w3.org/1999/xlink" x="0px" y="0px" width="1080px" height="720px"
	 viewBox="0 0 1080 720" enable-background="new 0 0 1080 720" xml:space="preserve">
<metadata>
	<sfw  xmlns="&ns_sfw;">
		<slices></slices>
		<sliceSourceBounds  bottomLeftOrigin="true" height="8684.4" width="6233.3" x="1337.3" y="-7019.9"></sliceSourceBounds>
		<optimizationSettings>
			<targetSettings  fileFormat="JPEGFormat" targetSettingsID="0">
				
					<JPEGFormat  blurAmount="0" embedICCProfile="false" matteColor="#FFFFFF" noMatteColor="false" optimized="true" progressive="false" quality="100">
					</JPEGFormat>
			</targetSettings>
		</optimizationSettings>
	</sfw>
</metadata>
<g id="Capa_1">
	<rect x="16.6" y="15.6" fill="#BDBDBD" width="1049.9" height="690.4"/>
	<path fill="#FFFFFF" d="M759.9,529.9c-16.3-22.1-51.1-64.6-101.1-101.6c-36-26.6-72.5-44.6-97-55.2v-28.4
		c21.3-2.6,51.5-8.3,82.7-21.1c44.2-18.2,77.4-45.7,89.6-56.7c3.2-2.9,4.3-7,2.7-10.5c-1.6-3.6-5.4-5.6-9.7-5.2
		c-8.7,0.8-23.3,2.6-41.1,6.3c31.3-25.9,53.3-52.8,64.6-68.2l0,0c2.7-3.7,3-8.3,0.6-11.7c-2.4-3.4-6.9-4.7-11.4-3.3
		c-22.9,7-68.1,23.4-113.2,54c-20.3,13.8-40,30-58.5,48.4l-4.8-8.7l0.2-59.5l6.8-13l0.7-2.7v-23.1l-5.8-5.8h-72.6l-5.8,5.8v22.5
		l0.5,2.4l5.5,12v4.1c-4.9-4.8-10.2-9.6-16-14.2c-23.1-18.5-46.7-29.3-58.8-34.1c-3.4-1.4-7.1-0.6-9.3,2.1c-2.2,2.6-2.3,6.3-0.4,9.4
		c7,11.2,22.1,32.9,45.3,51.5c13.5,10.9,27.5,18.8,39.2,24.5v20.5l-5.7,15.5l-0.4,1.9l-0.4,27.8l0.7,2.8l9.2,17.7v42.8l-9,20.8
		l-0.5,2.3v36.3l0.5,2.3l7.4,17.5v40.4l-7.2,14.4l-0.6,2.6v27.2l5.8,5.8H565l5.8-5.8v-26l-0.4-2.2l-7-17.1V454l6.4-16.3
		c15.9,16.3,32.6,31,49.8,43.7c52.3,38.6,107.8,58,129.2,64.6c1.2,0.4,2.5,0.6,3.7,0.6c3.3,0,6.4-1.4,8.2-4.1
		C763.2,538.8,762.9,533.9,759.9,529.9z M507.1,331.8l-9.2-17.7l0.1-5.7h40.6c-1.4,1.7-2.8,3.3-4.1,5c-2.9,3.7-3.4,8.3-1.1,11.8
		c1.7,2.7,4.7,4.2,8.1,4.2c1,0,2-0.1,3-0.4c2-0.5,4-1.1,6-1.6l-0.3,0.9V382l0.5,2.4l8.6,18.6v13.5h-61V403l9-20.8l0.5-2.3v-45.4
		L507.1,331.8z M640,312.8c-29.3,12.1-57.7,17.6-78.2,20.2v-2.7l5.7-8c0,0,0,0,0,0c23.9-8,58.4-22.1,92.1-45
		c0.9-0.6,1.9-1.3,2.8-1.9c23.3-6.8,44.2-10.1,57.8-11.8C705.4,276,676.6,297.7,640,312.8z M633,237.8c41.4-28.1,83.7-44,104.6-50.8
		c-14.7,19.2-42.2,51.1-81.1,78.2c-1.1,0.8-2.2,1.5-3.4,2.3c-33.8,23-68.5,36.8-91.8,44.4c-1.1,0.4-2.1,0.7-3.1,1l0,0
		c-3.7,1.2-7.4,2.3-11,3.3c2.7-3.2,5.5-6.5,8.4-9.8c4.7-5.3,9.2-10.1,13.7-14.8C589.2,271.1,610.7,252.9,633,237.8z M425,178.1
		c11.6,5.5,28.3,14.5,44.4,27.4c16.1,12.9,28.5,27.3,36.3,37.5c-11.9-5.1-28.9-13.7-45-26.7C444.7,203.4,432.6,188.6,425,178.1z
		 M513.6,258.5c1,0.3,2,0.5,3,0.5c2.4,0,4.7-1,6.1-3c2.1-2.7,2.1-6.5,0-9.5v0c-3.8-5.7-10-14.1-18.4-23.6v-17.6l-0.5-2.4l-5.5-12
		v-15.5h61v15.9l-6.8,13l-0.7,2.7l-0.3,62.4l0.7,2.8l7,12.7v0.5c-3.5,3.7-7,7.4-10.7,11.5h-50.4l0.1-8l5.7-15.6l0.4-2v-16.3
		C507.8,256.4,511,257.6,513.6,258.5z M552.2,500.5l7,17.1v19h-61v-20l7.2-14.4l0.6-2.6v-42.9l-0.5-2.3l-7.4-17.5v-8.8h61v4.7
		l-7,17.9l-0.4,2.1v45.4L552.2,500.5z M626.4,472c-18.4-13.6-36.3-29.5-53.2-47.4c-0.7-0.7-1.5-1.2-2.5-1.5v-21.3l-0.5-2.4
		l-5.7-12.3c23.6,10.6,55.7,27.3,87.3,50.6c46.5,34.4,79.6,73.8,96.4,96C725.1,526.3,674.4,507.4,626.4,472z"/>
</g>
<g id="Capa_2">
</g>
<g id="Capa_3">
</g>
<g id="Capa_4">
</g>
<g id="Capa_5">
</g>
</svg>
